<?xml version="1.0" encoding="UTF-8" standalone="no"?>
<svg width="20px" height="20px" viewBox="0 0 20 20" version="1.1" xmlns="http://www.w3.org/2000/svg" xmlns:xlink="http://www.w3.org/1999/xlink">
    <!-- Generator: Sketch 39 (31667) - http://www.bohemiancoding.com/sketch -->
    <title>Group 12</title>
    <desc>Created with Sketch.</desc>
    <defs>
        <path d="M10.625,9.375 L10.625,5.625 C10.625,5.28 10.345,5 10,5 C9.655,5 9.375,5.28 9.375,5.625 L9.375,9.375 L5.625,9.375 C5.28,9.375 5,9.655 5,10 C5,10.345 5.28,10.625 5.625,10.625 L9.375,10.625 L9.375,14.375 C9.375,14.72 9.655,15 10,15 C10.345,15 10.625,14.72 10.625,14.375 L10.625,10.625 L14.375,10.625 C14.72,10.625 15,10.345 15,10 C15,9.655 14.72,9.375 14.375,9.375 L10.625,9.375 Z" id="path-1"></path>
        <mask id="mask-2" maskContentUnits="userSpaceOnUse" maskUnits="objectBoundingBox" x="0" y="0" width="10" height="10" fill="white">
            <use xlink:href="#path-1"></use>
        </mask>
    </defs>
    <g id="UI.ver02" stroke="none" stroke-width="1" fill="none" fill-rule="evenodd">
        <g id="Material" transform="translate(-351.000000, -552.000000)">
            <g id="Group-12" transform="translate(351.000000, 552.000000)">
                <path d="M10,0 C4.48615385,0 0,4.48576923 0,10 C0,15.5142308 4.48615385,20 10,20 C15.5138462,20 20,15.5142308 20,10 C20,4.48576923 15.5138462,0 10,0 L10,0 Z M10,19.2307692 C4.91038462,19.2307692 0.769230769,15.0896154 0.769230769,10 C0.769230769,4.91038462 4.91038462,0.769230769 10,0.769230769 C15.0896154,0.769230769 19.2307692,4.91038462 19.2307692,10 C19.2307692,15.0896154 15.0896154,19.2307692 10,19.2307692 L10,19.2307692 Z" id="Shape" fill="#FFFFFF"></path>
                <use id="Shape" stroke="#FFFFFF" mask="url(#mask-2)" stroke-width="1.4" xlink:href="#path-1"></use>
            </g>
        </g>
    </g>
</svg>