<?xml version="1.0" encoding="UTF-8" standalone="no"?>
<svg width="28px" height="22px" viewBox="0 0 28 22" version="1.1" xmlns="http://www.w3.org/2000/svg" xmlns:xlink="http://www.w3.org/1999/xlink">
    <!-- Generator: Sketch 39 (31667) - http://www.bohemiancoding.com/sketch -->
    <title>Shape</title>
    <desc>Created with Sketch.</desc>
    <defs></defs>
    <g id="UI.ver02" stroke="none" stroke-width="1" fill="none" fill-rule="evenodd">
        <g id="Material" transform="translate(-104.000000, -689.000000)" stroke="#1F86EB" stroke-width="0.6" fill="#1F86EB">
            <path d="M130.9941,701.471549 C130.992229,701.438596 130.983164,701.407225 130.974529,701.374559 C130.965751,701.341462 130.957981,701.309372 130.942871,701.279296 C130.938554,701.270518 130.938842,701.260733 130.933805,701.252099 L124.651205,690.251972 C124.562273,690.09627 124.396499,690 124.217053,690 L111.782515,690 C111.60307,690 111.437295,690.09627 111.348364,690.251972 L105.065907,701.252099 C105.061014,701.260733 105.061302,701.270518 105.056841,701.279296 C105.041731,701.309372 105.034105,701.341462 105.025183,701.374559 C105.016549,701.407225 105.007483,701.438452 105.005612,701.471549 C105.00518,701.481334 105,701.489968 105,701.500185 L105,709.500108 C105,709.776399 105.223911,710.000166 105.500058,710.000166 L130.499942,710.000166 C130.776089,710.000166 131,709.776543 131,709.500108 L131,701.500185 C130.999856,701.489968 130.994676,701.481334 130.9941,701.471549 L130.9941,701.471549 Z M112.072908,691.00026 L123.926804,691.00026 L129.638403,701.000271 L123.061811,701.000271 C122.842505,701.000271 122.648958,701.142878 122.584202,701.352255 L121.608693,704.500246 L114.391019,704.500246 L113.415366,701.352255 C113.350755,701.142878 113.157063,701.000271 112.937901,701.000271 L106.361309,701.000271 L112.072908,691.00026 L112.072908,691.00026 Z M129.999884,708.999906 L105.999972,708.999906 L105.999972,701.999956 L112.569513,701.999956 L113.545166,705.147947 C113.609778,705.357324 113.803469,705.499931 114.022631,705.499931 L121.977225,705.499931 C122.196531,705.499931 122.390079,705.357324 122.454834,705.147947 L123.430343,701.999956 L129.999884,701.999956 L129.999884,708.999906 L129.999884,708.999906 Z" id="Shape"></path>
        </g>
    </g>
</svg>