<?xml version="1.0" encoding="UTF-8" standalone="no"?>
<svg width="50px" height="94px" viewBox="0 0 50 94" version="1.1" xmlns="http://www.w3.org/2000/svg" xmlns:xlink="http://www.w3.org/1999/xlink">
    <!-- Generator: Sketch 3.8.2 (29753) - http://www.bohemiancoding.com/sketch -->
    <title>popcorn</title>
    <desc>Created with Sketch.</desc>
    <defs></defs>
    <g id="UI.ver02" stroke="none" stroke-width="1" fill="none" fill-rule="evenodd">
        <g id="Material" transform="translate(-163.000000, -280.000000)" fill="#FFFFFF">
            <g id="popcorn" transform="translate(163.000000, 280.000000)">
                <g transform="translate(0.000000, 22.000000)" id="Capa_1">
                    <g>
                        <g id="Group">
                            <path d="M49.6821646,24.6957317 C49.4653963,24.4545732 49.1564024,24.3170732 48.8321646,24.3170732 L1.1679878,24.3170732 C0.84375,24.3170732 0.534756098,24.4547256 0.317987805,24.6957317 C0.101219512,24.9367378 -0.00304878049,25.2585366 0.031097561,25.5809451 L4.80914634,70.623628 C4.87073171,71.2050305 5.36128049,71.6463415 5.94603659,71.6463415 L44.0541159,71.6463415 C44.638872,71.6463415 45.1294207,71.2050305 45.1910061,70.623628 L49.9690549,25.5809451 C50.0032012,25.2585366 49.8989329,24.9367378 49.6821646,24.6957317 L49.6821646,24.6957317 Z M16.5571646,69.3597561 L14.2893293,26.6036585 L23.8567073,26.6036585 L23.8567073,69.3597561 L16.5571646,69.3597561 L16.5571646,69.3597561 Z M2.43902439,26.6036585 L11.9998476,26.6036585 L14.2675305,69.3597561 L6.97439024,69.3597561 L2.43902439,26.6036585 L2.43902439,26.6036585 Z M43.0256098,69.3597561 L35.732622,69.3597561 L36.7422256,50.3257622 C36.7757622,49.695122 36.2916159,49.1570122 35.661128,49.1234756 C35.0286585,49.0885671 34.4922256,49.5740854 34.4588415,50.2045732 L33.4428354,69.3597561 L26.1432927,69.3597561 L26.1432927,26.6036585 L35.7105183,26.6036585 L34.7009146,45.6376524 C34.667378,46.2682927 35.1515244,46.8064024 35.7820122,46.839939 C35.8027439,46.8410061 35.8231707,46.8416159 35.8435976,46.8416159 C36.4472561,46.8416159 36.9519817,46.36875 36.9842988,45.7588415 L38.0003049,26.6036585 L47.5609756,26.6036585 L43.0256098,69.3597561 L43.0256098,69.3597561 Z" id="Shape"></path>
                            <path d="M25,10.6707317 C24.3685976,10.6707317 23.8567073,11.182622 23.8567073,11.8140244 C23.8567073,12.4454268 24.3685976,12.9573171 25,12.9573171 C26.6314024,12.9573171 28.1073171,13.8612805 28.8519817,15.3164634 C29.0544207,15.7118902 29.4551829,15.9391768 29.8707317,15.9391768 C30.0460366,15.9391768 30.2239329,15.8987805 30.3907012,15.8134146 C30.9528963,15.5257622 31.1753049,14.8368902 30.8876524,14.2748476 C29.75,12.0516768 27.4939024,10.6707317 25,10.6707317 L25,10.6707317 Z" id="Shape"></path>
                            <path d="M11.7870427,20.3664634 C11.4993902,20.9286585 11.7219512,21.617378 12.2839939,21.9050305 C12.4507622,21.9903963 12.6286585,22.0307927 12.8039634,22.0307927 C13.2195122,22.0307927 13.6202744,21.8035061 13.8227134,21.4080793 C14.567378,19.9528963 16.0432927,19.0489329 17.6746951,19.0489329 C18.3060976,19.0489329 18.8179878,18.5370427 18.8179878,17.9056402 C18.8179878,17.2742378 18.3060976,16.7623476 17.6746951,16.7623476 C15.1806402,16.7623476 12.9246951,18.1432927 11.7870427,20.3664634 L11.7870427,20.3664634 Z" id="Shape"></path>
                            <path d="M1.08719512,22.0275915 C1.11463415,22.0295732 1.14192073,22.0304878 1.16905488,22.0304878 C1.76371951,22.0304878 2.26570122,21.570122 2.30838415,20.9678354 C2.32408537,20.7458841 2.35731707,20.522561 2.40731707,20.3036585 C2.77027439,18.7131098 3.98003049,17.4754573 5.56432927,17.0733232 C5.89222561,16.9900915 6.16631098,16.7660061 6.31310976,16.461128 C6.45990854,16.1564024 6.46417683,15.8022866 6.32484756,15.4940549 C5.65152439,14.0045732 5.86493902,12.2870427 6.8820122,11.0117378 C7.89908537,9.73628049 9.52621951,9.14588415 11.1280488,9.47103659 C11.4591463,9.5382622 11.803811,9.45533537 12.0682927,9.2445122 C12.3327744,9.03353659 12.4902439,8.71646341 12.4984756,8.37820122 C12.5379573,6.74405488 13.4754573,5.28932927 14.9452744,4.58140244 C16.4152439,3.87347561 18.1370427,4.04756098 19.4393293,5.03551829 C19.7088415,5.23993902 20.054878,5.31432927 20.3847561,5.23932927 C20.7144817,5.16402439 20.9940549,4.94664634 21.1481707,4.64542683 C21.8926829,3.19054878 23.3685976,2.28658537 25,2.28658537 C26.6314024,2.28658537 28.1073171,3.19054878 28.8519817,4.64573171 C29.0060976,4.94695122 29.2856707,5.16432927 29.6153963,5.23963415 C29.9449695,5.31478659 30.2914634,5.2402439 30.5608232,5.03582317 C31.8629573,4.04771341 33.5849085,3.87378049 35.0547256,4.58170732 C36.5245427,5.28963415 37.4620427,6.74435976 37.5015244,8.3785061 C37.5097561,8.71661585 37.6672256,9.03384146 37.9317073,9.24481707 C38.196189,9.45564024 38.5407012,9.53871951 38.8719512,9.47134146 C40.4739329,9.14634146 42.1009146,9.73658537 43.1179878,11.0120427 C44.135061,12.2875 44.348628,14.0050305 43.6753049,15.4943598 C43.5359756,15.8025915 43.5402439,16.1567073 43.6870427,16.4614329 C43.8338415,16.7661585 44.1079268,16.9902439 44.4358232,17.0734756 C46.020122,17.4756098 47.229878,18.7134146 47.5928354,20.303811 C47.6428354,20.5227134 47.6760671,20.7460366 47.6917683,20.9678354 C47.7362805,21.597561 48.2832317,22.0721037 48.9129573,22.0275915 C49.5428354,21.9830793 50.0172256,21.4362805 49.9727134,20.8064024 C49.9487805,20.4679878 49.8981707,20.1275915 49.8221037,19.7948171 C49.360061,17.7702744 48.0010671,16.1196646 46.1620427,15.2692073 C46.64375,13.3010671 46.2004573,11.2096037 44.9057927,9.58597561 C43.6109756,7.96219512 41.6728659,7.0652439 39.6445122,7.09664634 C39.2246951,5.11448171 37.9178354,3.4222561 36.0467988,2.52118902 C34.1759146,1.62012195 32.0381098,1.65335366 30.2265244,2.56112805 C28.9882622,0.957621951 27.0766768,0 25,0 C22.9233232,0 21.0117378,0.957469512 19.7734756,2.56128049 C17.9618902,1.6535061 15.8240854,1.62042683 13.9530488,2.52134146 C12.0821646,3.42240854 10.7753049,5.11448171 10.3554878,7.09679878 C8.32591463,7.06463415 6.38887195,7.96265244 5.09420732,9.58612805 C3.79954268,11.2096037 3.35625,13.3012195 3.83795732,15.2693598 C1.99893293,16.1198171 0.639939024,17.7704268 0.177896341,19.7949695 C0.101829268,20.1277439 0.0512195122,20.4681402 0.0272865854,20.8065549 C-0.0170731707,21.4364329 0.457317073,21.9830793 1.08719512,22.0275915 L1.08719512,22.0275915 Z" id="Shape"></path>
                        </g>
                    </g>
                </g>
                <g id="Group-2" transform="translate(9.000000, 0.000000)">
                    <rect id="Rectangle-6" x="15" y="0" width="2" height="10" rx="1"></rect>
                    <rect id="Rectangle-6" transform="translate(28.000000, 7.000000) rotate(30.000000) translate(-28.000000, -7.000000) " x="27" y="2" width="2" height="10" rx="1"></rect>
                    <rect id="Rectangle-6" transform="translate(4.000000, 7.000000) rotate(-30.000000) translate(-4.000000, -7.000000) " x="3" y="2" width="2" height="10" rx="1"></rect>
                </g>
            </g>
        </g>
    </g>
</svg>