<?xml version="1.0" encoding="UTF-8" standalone="no"?>
<svg width="61px" height="94px" viewBox="0 0 61 94" version="1.1" xmlns="http://www.w3.org/2000/svg" xmlns:xlink="http://www.w3.org/1999/xlink">
    <!-- Generator: Sketch 39 (31667) - http://www.bohemiancoding.com/sketch -->
    <title>Group 4 Copy</title>
    <desc>Created with Sketch.</desc>
    <defs>
        <path d="M34.0289404,89.6463415 L5.94603659,89.6463415 C5.36128049,89.6463415 4.87073171,89.2050305 4.80914634,88.623628 L0.031097561,43.5809451 C-0.00304878049,43.2585366 0.101219512,42.9367378 0.317987805,42.6957317 C0.534756098,42.4547256 0.84375,42.3170732 1.1679878,42.3170732 L48.8321646,42.3170732 C49.1564024,42.3170732 49.4653963,42.4545732 49.6821646,42.6957317 C49.8989329,42.9367378 50.0032012,43.2585366 49.9690549,43.5809451 L47.9856951,62.2780848 C55.3953698,63.6766345 61,70.1838015 61,78 C61,86.836556 53.836556,94 45,94 C40.7534834,94 36.8933557,92.3456726 34.0289404,89.6463415 Z" id="path-1"></path>
        <mask id="mask-2" maskContentUnits="userSpaceOnUse" maskUnits="objectBoundingBox" x="0" y="0" width="60.9752698" height="51.6829268" fill="white">
            <use xlink:href="#path-1"></use>
        </mask>
    </defs>
    <g id="Logo" stroke="none" stroke-width="1" fill="none" fill-rule="evenodd">
        <g id="Artboard" transform="translate(-526.000000, -627.000000)">
            <g id="Group-4-Copy" transform="translate(526.000000, 627.000000)">
                <use id="Combined-Shape" stroke="#FFFFFF" mask="url(#mask-2)" stroke-width="3.6" xlink:href="#path-1"></use>
                <rect id="Rectangle-2" fill="#FFFFFF" transform="translate(25.000000, 58.000000) rotate(-6.000000) translate(-25.000000, -58.000000) " x="2" y="57" width="46" height="2"></rect>
                <rect id="Rectangle-2" fill="#FFFFFF" transform="translate(17.500000, 75.000000) rotate(-6.000000) translate(-17.500000, -75.000000) " x="4" y="74" width="27" height="2"></rect>
                <g id="Group-5" transform="translate(0.000000, 18.000000)" fill="#FFFFFF">
                    <path d="M28,10.6707317 C27.3685976,10.6707317 26.8567073,11.182622 26.8567073,11.8140244 C26.8567073,12.4454268 27.3685976,12.9573171 28,12.9573171 C29.6314024,12.9573171 31.1073171,13.8612805 31.8519817,15.3164634 C32.0544207,15.7118902 32.4551829,15.9391768 32.8707317,15.9391768 C33.0460366,15.9391768 33.2239329,15.8987805 33.3907012,15.8134146 C33.9528963,15.5257622 34.1753049,14.8368902 33.8876524,14.2748476 C32.75,12.0516768 30.4939024,10.6707317 28,10.6707317 L28,10.6707317 Z" id="Shape"></path>
                    <path d="M12.7870427,18.3664634 C12.4993902,18.9286585 12.7219512,19.617378 13.2839939,19.9050305 C13.4507622,19.9903963 13.6286585,20.0307927 13.8039634,20.0307927 C14.2195122,20.0307927 14.6202744,19.8035061 14.8227134,19.4080793 C15.567378,17.9528963 17.0432927,17.0489329 18.6746951,17.0489329 C19.3060976,17.0489329 19.8179878,16.5370427 19.8179878,15.9056402 C19.8179878,15.2742378 19.3060976,14.7623476 18.6746951,14.7623476 C16.1806402,14.7623476 13.9246951,16.1432927 12.7870427,18.3664634 L12.7870427,18.3664634 Z" id="Shape"></path>
                    <path d="M1.08719512,22.0275915 C1.11463415,22.0295732 1.14192073,22.0304878 1.16905488,22.0304878 C1.76371951,22.0304878 2.26570122,21.570122 2.30838415,20.9678354 C2.32408537,20.7458841 2.35731707,20.522561 2.40731707,20.3036585 C2.77027439,18.7131098 3.98003049,17.4754573 5.56432927,17.0733232 C5.89222561,16.9900915 6.16631098,16.7660061 6.31310976,16.461128 C6.45990854,16.1564024 6.46417683,15.8022866 6.32484756,15.4940549 C5.65152439,14.0045732 5.86493902,12.2870427 6.8820122,11.0117378 C7.89908537,9.73628049 9.52621951,9.14588415 11.1280488,9.47103659 C11.4591463,9.5382622 11.803811,9.45533537 12.0682927,9.2445122 C12.3327744,9.03353659 12.4902439,8.71646341 12.4984756,8.37820122 C12.5379573,6.74405488 13.4754573,5.28932927 14.9452744,4.58140244 C16.4152439,3.87347561 18.1370427,4.04756098 19.4393293,5.03551829 C19.7088415,5.23993902 20.054878,5.31432927 20.3847561,5.23932927 C20.7144817,5.16402439 20.9940549,4.94664634 21.1481707,4.64542683 C21.8926829,3.19054878 23.3685976,2.28658537 25,2.28658537 C26.6314024,2.28658537 28.1073171,3.19054878 28.8519817,4.64573171 C29.0060976,4.94695122 29.2856707,5.16432927 29.6153963,5.23963415 C29.9449695,5.31478659 30.2914634,5.2402439 30.5608232,5.03582317 C31.8629573,4.04771341 33.5849085,3.87378049 35.0547256,4.58170732 C36.5245427,5.28963415 37.4620427,6.74435976 37.5015244,8.3785061 C37.5097561,8.71661585 37.6672256,9.03384146 37.9317073,9.24481707 C38.196189,9.45564024 38.5407012,9.53871951 38.8719512,9.47134146 C40.4739329,9.14634146 42.1009146,9.73658537 43.1179878,11.0120427 C44.135061,12.2875 44.348628,14.0050305 43.6753049,15.4943598 C43.5359756,15.8025915 43.5402439,16.1567073 43.6870427,16.4614329 C43.8338415,16.7661585 44.1079268,16.9902439 44.4358232,17.0734756 C46.020122,17.4756098 47.229878,18.7134146 47.5928354,20.303811 C47.6428354,20.5227134 47.6760671,20.7460366 47.6917683,20.9678354 C47.7362805,21.597561 48.2832317,22.0721037 48.9129573,22.0275915 C49.5428354,21.9830793 50.0172256,21.4362805 49.9727134,20.8064024 C49.9487805,20.4679878 49.8981707,20.1275915 49.8221037,19.7948171 C49.360061,17.7702744 48.0010671,16.1196646 46.1620427,15.2692073 C46.64375,13.3010671 46.2004573,11.2096037 44.9057927,9.58597561 C43.6109756,7.96219512 41.6728659,7.0652439 39.6445122,7.09664634 C39.2246951,5.11448171 37.9178354,3.4222561 36.0467988,2.52118902 C34.1759146,1.62012195 32.0381098,1.65335366 30.2265244,2.56112805 C28.9882622,0.957621951 27.0766768,0 25,0 C22.9233232,0 21.0117378,0.957469512 19.7734756,2.56128049 C17.9618902,1.6535061 15.8240854,1.62042683 13.9530488,2.52134146 C12.0821646,3.42240854 10.7753049,5.11448171 10.3554878,7.09679878 C8.32591463,7.06463415 6.38887195,7.96265244 5.09420732,9.58612805 C3.79954268,11.2096037 3.35625,13.3012195 3.83795732,15.2693598 C1.99893293,16.1198171 0.639939024,17.7704268 0.177896341,19.7949695 C0.101829268,20.1277439 0.0512195122,20.4681402 0.0272865854,20.8065549 C-0.0170731707,21.4364329 0.457317073,21.9830793 1.08719512,22.0275915 L1.08719512,22.0275915 Z" id="Shape"></path>
                </g>
                <g id="Group-3" transform="translate(9.000000, 0.000000)" fill="#FFFFFF">
                    <rect id="Rectangle-6" x="15" y="0" width="2" height="10" rx="1"></rect>
                    <rect id="Rectangle-6" transform="translate(28.000000, 7.000000) rotate(30.000000) translate(-28.000000, -7.000000) " x="27" y="2" width="2" height="10" rx="1"></rect>
                    <rect id="Rectangle-6" transform="translate(4.000000, 7.000000) rotate(-30.000000) translate(-4.000000, -7.000000) " x="3" y="2" width="2" height="10" rx="1"></rect>
                </g>
                <path d="M45,93 C53.2842712,93 60,86.2842712 60,78 C60,69.7157288 53.2842712,63 45,63 C36.7157288,63 30,69.7157288 30,78 C30,86.2842712 36.7157288,93 45,93 Z" id="Oval-Copy" stroke="#FFFFFF" stroke-width="2"></path>
                <path d="M42.8300758,82.694331 L37.870053,78.6205777 C37.6397031,78.4308322 37.301678,78.4698813 37.117398,78.7063757 C36.9325824,78.94397 36.9700812,79.2899118 37.2009669,79.4796573 L42.5579415,83.8795529 C42.6565099,83.9604009 42.774899,84 42.8927524,84 C43.0406049,84 43.1879217,83.9373015 43.2934541,83.8152044 L51.8646136,73.9154394 C52.0612146,73.6888448 52.0413938,73.340703 51.8201507,73.1394078 C51.598372,72.9370126 51.2603469,72.9573621 51.0632102,73.1850567 L42.8300758,82.694331 Z" id="Shape-Copy" stroke="#FFFFFF" fill="#FFFFFF"></path>
            </g>
        </g>
    </g>
</svg>