<?xml version="1.0" encoding="UTF-8" standalone="no"?>
<svg width="17px" height="18px" viewBox="0 0 17 18" version="1.1" xmlns="http://www.w3.org/2000/svg" xmlns:xlink="http://www.w3.org/1999/xlink">
    <!-- Generator: Sketch 3.8.2 (29753) - http://www.bohemiancoding.com/sketch -->
    <title>search</title>
    <desc>Created with Sketch.</desc>
    <defs></defs>
    <g id="UI.ver02" stroke="none" stroke-width="1" fill="none" fill-rule="evenodd">
        <g id="Material" transform="translate(-152.000000, -244.000000)" stroke="#FFFFFF" fill="#FFFFFF">
            <path d="M167.918031,260.080385 L163.547711,255.535358 C164.662423,254.41741 165.353016,252.876224 165.353016,251.176508 C165.353016,247.770605 162.582411,245 159.176508,245 C155.770605,245 153,247.770605 153,251.176508 C153,254.582411 155.770605,257.353016 159.176508,257.353016 C160.671517,257.353016 162.043584,256.818601 163.113002,255.931831 L167.493911,260.488035 C167.551558,260.548329 167.628618,260.578329 167.705971,260.578329 C167.779501,260.578329 167.852737,260.550976 167.909796,260.49627 C168.026855,260.383622 168.030385,260.197445 167.918031,260.080385 L167.918031,260.080385 Z M153.588239,251.176508 C153.588239,248.095019 156.095019,245.588239 159.176508,245.588239 C162.257997,245.588239 164.764777,248.095019 164.764777,251.176508 C164.764777,254.257997 162.257997,256.764777 159.176508,256.764777 C156.095019,256.764777 153.588239,254.257997 153.588239,251.176508 L153.588239,251.176508 Z" id="search"></path>
        </g>
    </g>
</svg>