<?xml version="1.0" encoding="UTF-8" standalone="no"?>
<svg width="10px" height="10px" viewBox="0 0 10 10" version="1.1" xmlns="http://www.w3.org/2000/svg" xmlns:xlink="http://www.w3.org/1999/xlink">
    <!-- Generator: Sketch 3.8.2 (29753) - http://www.bohemiancoding.com/sketch -->
    <title>Shape</title>
    <desc>Created with Sketch.</desc>
    <defs></defs>
    <g id="UI.ver02" stroke="none" stroke-width="1" fill="none" fill-rule="evenodd">
        <g id="Material" transform="translate(-168.000000, -583.000000)" fill="#FFCA28">
            <path d="M177.783042,587.356146 C177.979879,587.164315 178.049363,586.882775 177.964461,586.621058 C177.879358,586.359342 177.65769,586.172516 177.385361,586.132868 L174.964035,585.781043 C174.860911,585.766025 174.771803,585.701347 174.725747,585.607834 L173.643239,583.413783 C173.521693,583.167285 173.274994,583.0141 173.000062,583.0141 C172.72533,583.0141 172.478632,583.167285 172.357085,583.413783 L171.274377,585.607834 C171.228321,585.701347 171.139014,585.766025 171.035889,585.781043 L168.614563,586.133069 C168.342434,586.172516 168.120767,586.359342 168.035664,586.621058 C167.950761,586.882775 168.020245,587.164315 168.217083,587.356146 L169.969,589.06381 C170.04369,589.136698 170.077931,589.241625 170.06031,589.344149 L169.646811,591.755662 C169.600354,592.02659 169.709486,592.295114 169.931955,592.45691 C170.154224,592.618905 170.443573,592.639931 170.687268,592.511576 L172.852684,591.373 C172.944996,591.324542 173.055129,591.324542 173.14744,591.373 L175.313057,592.511576 C175.418785,592.567243 175.533323,592.594676 175.647261,592.594676 C175.79524,592.594676 175.942618,592.54842 176.06837,592.45691 C176.290839,592.295114 176.39997,592.02659 176.353514,591.755662 L175.939814,589.344349 C175.922193,589.241625 175.956434,589.136898 176.031125,589.06401 L177.783042,587.356146 L177.783042,587.356146 Z" id="Shape"></path>
        </g>
    </g>
</svg>