<?xml version="1.0" encoding="UTF-8" standalone="no"?>
<svg width="58px" height="58px" viewBox="0 0 58 58" version="1.1" xmlns="http://www.w3.org/2000/svg" xmlns:xlink="http://www.w3.org/1999/xlink">
    <!-- Generator: Sketch 3.8.2 (29753) - http://www.bohemiancoding.com/sketch -->
    <title>add-button</title>
    <desc>Created with Sketch.</desc>
    <defs>
        <filter x="-50%" y="-50%" width="200%" height="200%" filterUnits="objectBoundingBox" id="filter-1">
            <feOffset dx="0" dy="0" in="SourceAlpha" result="shadowOffsetOuter1"></feOffset>
            <feGaussianBlur stdDeviation="2" in="shadowOffsetOuter1" result="shadowBlurOuter1"></feGaussianBlur>
            <feColorMatrix values="0 0 0 0 0   0 0 0 0 0   0 0 0 0 0  0 0 0 0.5 0" type="matrix" in="shadowBlurOuter1" result="shadowMatrixOuter1"></feColorMatrix>
            <feMerge>
                <feMergeNode in="shadowMatrixOuter1"></feMergeNode>
                <feMergeNode in="SourceGraphic"></feMergeNode>
            </feMerge>
        </filter>
    </defs>
    <g id="UI.ver02" stroke="none" stroke-width="1" fill="none" fill-rule="evenodd">
        <g id="Material" transform="translate(-51.000000, -203.000000)">
            <g id="add-button" transform="translate(55.000000, 207.000000)">
                <g filter="url(#filter-1)">
                    <circle id="Oval-1" fill="#1F86EB" cx="25" cy="25" r="25"></circle>
                    <path d="M33.75,23.75 L26.25,23.75 L26.25,16.25 C26.25,15.56 25.69,15 25,15 C24.31,15 23.75,15.56 23.75,16.25 L23.75,23.75 L16.25,23.75 C15.56,23.75 15,24.31 15,25 C15,25.69 15.56,26.25 16.25,26.25 L23.75,26.25 L23.75,33.75 C23.75,34.44 24.31,35 25,35 C25.69,35 26.25,34.44 26.25,33.75 L26.25,26.25 L33.75,26.25 C34.44,26.25 35,25.69 35,25 C35,24.31 34.44,23.75 33.75,23.75 L33.75,23.75 Z" id="Shape" fill="#FFFFFF"></path>
                </g>
            </g>
        </g>
    </g>
</svg>